<svg width="32" height="32" viewBox="0 0 32 32" fill="none" xmlns="http://www.w3.org/2000/svg">
  <rect width="32" height="32" rx="8" fill="#09090b" />
  <g transform="translate(4, 4)">
    <path
      d="M14 2H6a2 2 0 0 0-2 2v16a2 2 0 0 0 2 2h12a2 2 0 0 0 2-2V8"
      stroke="#fafafa"
      stroke-width="2"
      stroke-linecap="round"
      stroke-linejoin="round"
    />
    <circle cx="8" cy="7" r="1.8" stroke="#fafafa" stroke-width="1.8" />
    <path
      d="M5.5 12c0-1.4 1.1-2.2 2.5-2.2s2.5.8 2.5 2.2"
      stroke="#fafafa"
      stroke-width="1.8"
      stroke-linecap="round"
    />
    <path
      d="M8 16.5l2.5 2.5 7.5-7.5"
      stroke="#fafafa"
      stroke-width="2.3"
      stroke-linecap="round"
      stroke-linejoin="round"
    />
    <path
      d="M18.5 2.5l.6 1.7 1.9.8-1.9.8-.6 1.7-.6-1.7-1.9-.8 1.9-.8.6-1.7z"
      fill="#fafafa"
    />
  </g>
</svg>
